<?xml version="1.0" encoding="UTF-8" standalone="no"?>
<!-- Created with Inkscape (http://www.inkscape.org/) -->

<svg
   xmlns:dc="http://purl.org/dc/elements/1.1/"
   xmlns:cc="http://creativecommons.org/ns#"
   xmlns:rdf="http://www.w3.org/1999/02/22-rdf-syntax-ns#"
   xmlns:svg="http://www.w3.org/2000/svg"
   xmlns="http://www.w3.org/2000/svg"
   xmlns:xlink="http://www.w3.org/1999/xlink"
   xmlns:sodipodi="http://sodipodi.sourceforge.net/DTD/sodipodi-0.dtd"
   xmlns:inkscape="http://www.inkscape.org/namespaces/inkscape"
   width="48"
   height="48"
   id="svg4230"
   version="1.1"
   inkscape:version="0.48.5 r"
   sodipodi:docname="google-hangouts2.svg">
  <defs
     id="defs4232">
    <linearGradient
       id="linearGradient3871">
      <stop
         style="stop-color:#17a05e;stop-opacity:1;"
         offset="0"
         id="stop3873" />
      <stop
         style="stop-color:#1bbd6f;stop-opacity:1;"
         offset="1"
         id="stop3875" />
    </linearGradient>
    <linearGradient
       id="linearGradient3796">
      <stop
         style="stop-color:#f7f7f7;stop-opacity:1;"
         offset="0"
         id="stop3798" />
      <stop
         style="stop-color:#ececec;stop-opacity:1;"
         offset="1"
         id="stop3800" />
    </linearGradient>
    <linearGradient
       id="linearGradient4524">
      <stop
         style="stop-color:#1c5ed1;stop-opacity:1;"
         offset="0"
         id="stop4526" />
      <stop
         style="stop-color:#3675e3;stop-opacity:1;"
         offset="1"
         id="stop4528" />
    </linearGradient>
    <linearGradient
       id="linearGradient4243">
      <stop
         style="stop-color:#000000;stop-opacity:1;"
         offset="0"
         id="stop4245" />
      <stop
         style="stop-color:#000000;stop-opacity:0;"
         offset="1"
         id="stop4247" />
    </linearGradient>
    <radialGradient
       inkscape:collect="always"
       xlink:href="#linearGradient4243"
       id="radialGradient4274"
       gradientUnits="userSpaceOnUse"
       gradientTransform="matrix(1.0434782,0,0,0.1956518,-1.0434797,35.184809)"
       cx="24.000001"
       cy="42.499991"
       fx="24.000001"
       fy="42.499991"
       r="23" />
    <linearGradient
       id="linearGradient3068-1">
      <stop
         style="stop-color:#dfdfdf;stop-opacity:1;"
         offset="0"
         id="stop3070-5" />
      <stop
         style="stop-color:#ffffff;stop-opacity:1;"
         offset="1"
         id="stop3072-7" />
    </linearGradient>
    <linearGradient
       inkscape:collect="always"
       xlink:href="#linearGradient3068-1"
       id="linearGradient4245"
       x1="24.230993"
       y1="1043.1351"
       x2="24.230993"
       y2="1010.4795"
       gradientUnits="userSpaceOnUse" />
    <linearGradient
       inkscape:collect="always"
       xlink:href="#linearGradient3871"
       id="linearGradient3877"
       x1="20"
       y1="46"
       x2="20"
       y2="2"
       gradientUnits="userSpaceOnUse" />
    <linearGradient
       inkscape:collect="always"
       xlink:href="#linearGradient24"
       id="linearGradient3061"
       gradientUnits="userSpaceOnUse"
       gradientTransform="matrix(-8e-6,184.02686,184.02686,8e-6,216.54698,10.708467)"
       spreadMethod="pad"
       x1="0"
       y1="0"
       x2="1"
       y2="0" />
    <linearGradient
       x1="0"
       y1="0"
       x2="1"
       y2="0"
       gradientUnits="userSpaceOnUse"
       gradientTransform="matrix(-8e-6,184.02686,184.02686,8e-6,78.92334,0)"
       spreadMethod="pad"
       id="linearGradient24">
      <stop
         style="stop-opacity:1;stop-color:#529c4e"
         offset="0"
         id="stop26" />
      <stop
         style="stop-opacity:1;stop-color:#6abb51"
         offset="0.494624"
         id="stop28" />
      <stop
         style="stop-opacity:1;stop-color:#6abb51"
         offset="1"
         id="stop30" />
    </linearGradient>
  </defs>
  <sodipodi:namedview
     id="base"
     pagecolor="#ffffff"
     bordercolor="#666666"
     borderopacity="1.0"
     inkscape:pageopacity="0.0"
     inkscape:pageshadow="2"
     inkscape:zoom="9.4562896"
     inkscape:cx="16.135621"
     inkscape:cy="22.859495"
     inkscape:document-units="px"
     inkscape:current-layer="layer2"
     showgrid="true"
     inkscape:showpageshadow="false"
     borderlayer="true"
     inkscape:window-width="1366"
     inkscape:window-height="736"
     inkscape:window-x="0"
     inkscape:window-y="32"
     inkscape:window-maximized="1"
     showguides="true"
     inkscape:guide-bbox="true">
    <inkscape:grid
       type="xygrid"
       id="grid4162" />
  </sodipodi:namedview>
  <metadata
     id="metadata4235">
    <rdf:RDF>
      <cc:Work
         rdf:about="">
        <dc:format>image/svg+xml</dc:format>
        <dc:type
           rdf:resource="http://purl.org/dc/dcmitype/StillImage" />
        <dc:title></dc:title>
      </cc:Work>
    </rdf:RDF>
  </metadata>
  <g
     inkscape:groupmode="layer"
     id="layer3"
     inkscape:label="Fake blur shadow"
     style="display:inline"
     sodipodi:insensitive="true">
    <path
       style="opacity:0.06000001;fill:#000000;fill-opacity:1;stroke:none"
       d="M 10,1 C 5.014,1 1,5.014 1,10 l 0,28 c 0,4.986 4.014,9 9,9 l 28,0 c 4.986,0 9,-4.014 9,-9 L 47,10 C 47,5.014 42.986,1 38,1 L 10,1 z m 0.5,0.5 27,0 c 4.986,0 9,4.014 9,9 l 0,27 c 0,4.986 -4.014,9 -9,9 l -27,0 c -4.986,0 -9,-4.014 -9,-9 l 0,-27 c 0,-4.986 4.014,-9 9,-9 z"
       id="rect3829"
       inkscape:connector-curvature="0" />
    <path
       style="opacity:0.12000002;fill:#000000;fill-opacity:1;stroke:none"
       d="m 10.5,1.5 c -4.986,0 -9,4.014 -9,9 l 0,27 c 0,4.986 4.014,9 9,9 l 27,0 c 4.986,0 9,-4.014 9,-9 l 0,-27 c 0,-4.986 -4.014,-9 -9,-9 l -27,0 z m 0.25,0.25 26.5,0 c 4.986,0 9,4.014 9,9 l 0,26.5 c 0,4.986 -4.014,9 -9,9 l -26.5,0 c -4.986,0 -9,-4.014 -9,-9 l 0,-26.5 c 0,-4.986 4.014,-9 9,-9 z"
       id="rect3827"
       inkscape:connector-curvature="0" />
    <rect
       style="opacity:0.23999999;fill:#000000;fill-opacity:1;stroke:none"
       id="rect3038-4"
       width="44.5"
       height="44.5"
       x="1.75"
       y="1.75"
       ry="9"
       rx="9" />
  </g>
  <g
     inkscape:groupmode="layer"
     id="layer6"
     inkscape:label="Blob"
     style="display:inline"
     sodipodi:insensitive="true">
    <path
       style="opacity:0.3;fill:url(#radialGradient4274);fill-opacity:1;stroke:none"
       d="M 1.03125,39 C 1.5192036,43.518898 5.3471961,47 10,47 l 28,0 c 4.652804,0 8.480796,-3.481102 8.96875,-8 l -45.9375,0 z"
       id="rect4241"
       inkscape:connector-curvature="0" />
  </g>
  <g
     inkscape:groupmode="layer"
     id="layer2"
     inkscape:label="Baseplate"
     style="display:inline">
    <rect
       style="fill:url(#linearGradient3877);fill-opacity:1.0;stroke:none"
       id="rect3038"
       width="44"
       height="44"
       x="2"
       y="1.9999826"
       ry="9"
       rx="9" />
  </g>
  <g
     inkscape:label="Symbol"
     inkscape:groupmode="layer"
     id="layer1"
     transform="translate(0,-1004.3622)"
     style="display:inline">
    <path
       inkscape:connector-curvature="0"
       id="path3919"
       style="opacity:0.15;fill:#000000;stroke:none"
       d="m 23.009295,1013.3626 c -0.0153,0.034 -0.044,0.033 -0.0718,0.032 l 0,0 c -0.009,0 -0.0172,0 -0.0252,0 l 0,0 c -0.47646,0.041 -0.95132,0.094 -1.42157,0.1819 l 0,0 c -3.43898,0.6388 -6.26296,2.2939 -8.44906,4.9678 l 0,0 c -1.79799,2.1987 -2.78815,4.7212 -3.00208,7.5336 l 0,0 c -0.0257,0.3385 -0.0388,0.6763 -0.0394,1.0134 l 0,0 0,0.044 c 0.002,1.0044 0.1153,2.0013 0.34094,2.988 l 0,0 c 0.22652,0.9912 0.56444,1.9486 1.0189,2.864 l 0,0 c 0.0399,0.078 0.0795,0.1561 0.11991,0.2337 l 0,0 c 0.74662,1.4412 1.70699,2.7254 2.91073,3.8347 l 0,0 c 0.6338,0.5838 1.3107,1.112 2.04419,1.5684 l 0,0 c 2.24641,1.3977 4.69859,2.1306 7.36257,2.1635 l 0,0 c 0.1632,0 0.20772,0.042 0.20701,0.2053 l 0,0 c -0.007,1.3977 -0.004,2.7958 -0.004,4.1935 l 0,0 c 1.4e-4,0.054 0.005,0.1084 0.007,0.1758 l 0,0 c 0.0461,-0.019 0.075,-0.028 0.10288,-0.042 l 0,0 c 2.678,-1.2333 5.1371,-2.7919 7.32941,-4.7454 l 0,0 c 0.43601,-0.3889 0.8534,-0.7959 1.255,-1.2199 l 0,0 c 0.17189,-0.1815 0.34218,-0.3661 0.5146,-0.547 l 0,0 c 0.26608,-0.2791 0.49632,-0.5909 0.74715,-0.8842 l 0,0 c 0.28967,-0.3388 0.54972,-0.6988 0.80622,-1.0612 l 0,0 c 0.56728,-0.801 1.07354,-1.6365 1.49926,-2.5191 l 0,0 c 0.21535,-0.4464 0.42041,-0.8961 0.60187,-1.3561 l 0,0 c 0.006,-0.01 0.0142,-0.017 0.0179,-0.025 l 0,0 c 0.49455,-1.2605 0.81136,-2.5647 0.98041,-3.9026 l 0,0 c 0.0589,-0.4661 0.097,-0.9352 0.12098,-1.4039 l 0,0 c 0.0108,-0.2117 0.0163,-0.4232 0.0167,-0.6343 l 0,0 0,-0.046 c -10e-4,-0.7793 -0.0736,-1.5549 -0.21747,-2.3243 l 0,0 c -0.49545,-2.6478 -1.67826,-4.9608 -3.54684,-6.9344 l 0,0 c -0.78866,-0.8333 -1.67204,-1.5573 -2.64748,-2.172 l 0,0 c -1.81661,-1.1449 -3.79588,-1.8464 -5.94207,-2.0949 l 0,0 c -0.26165,-0.03 -0.52702,-0.026 -0.78494,-0.086 l 0,0 -1.85208,0 z m 7.75158,9.3269 c 0.43194,0 0.7899,0.4265 0.65154,0.8444 l 0,0 c 0.0328,0.079 0.0271,0.162 0.0271,0.2446 l 0,0 c 0,1.7971 7.1e-4,3.5942 -5.7e-4,5.3915 l 0,0 c -0.001,1.6057 -1.02777,3.1079 -2.5407,3.7247 l 0,0 c -0.0385,0.016 -0.0748,0.036 -0.11193,0.055 l 0,0 c 0.0259,0.031 0.057,0.041 0.0896,0.043 l 0,0 c 0.001,0 0.002,0 0.003,0 l 0,0 c -10e-4,0 -0.002,0 -0.003,0 l 0,0 c -0.0326,0 -0.0639,-0.011 -0.0898,-0.043 l 0,0 c -0.0206,0.01 -0.0413,0.011 -0.0623,0.017 l 0,0 c -0.0117,0.01 -0.0234,0.013 -0.0353,0.02 l 0,0 c -0.3161,0.087 -0.63504,0.1604 -0.96107,0.2073 l 0,0 c -0.24887,0.036 -0.43673,-0.1019 -0.43974,-0.3471 l 0,0 c -0.002,-0.1719 -0.004,-0.3439 -0.005,-0.5161 l 0,0 c 0.003,-0.3078 0.006,-0.6157 0.009,-0.9235 l 0,0 c -0.001,-0.068 -0.004,-0.1356 -0.004,-0.2033 l 0,0 c 2.8e-4,-0.2364 0.0935,-0.336 0.39309,-0.4034 l 0,0 c 0.38031,-0.085 0.73828,-0.2055 1.03416,-0.475 l 0,0 c 0.3553,-0.3236 0.53481,-0.7272 0.61623,-1.1835 l 0,0 c -1.026,0 -2.05182,0 -3.07799,-0.01 l 0,0 c -0.0371,0 -0.0745,0 -0.11176,0 l 0,0 c -0.0743,0 -0.14865,0 -0.22297,0 l 0,0 c -0.41916,-0.01 -0.706,-0.2907 -0.70582,-0.7037 l 0,0 c 5.7e-4,-1.6259 0.003,-3.2519 0.004,-4.878 l 0,0 c 0,-0.016 -0.002,-0.031 -0.003,-0.047 l 0,0 c -0.0323,-0.3043 0.0571,-0.5536 0.33277,-0.7229 l 0,0 c 0.10735,-0.066 0.22372,-0.093 0.34718,-0.093 l 0,0 c 0.68009,0 1.36037,0 2.04064,0 l 0,0 c 0.9421,0 1.8842,0 2.82629,0 m -8.65323,0 c 0.43229,0 0.79007,0.4265 0.65171,0.8444 l 0,0 c 0.0335,0.079 0.0273,0.1623 0.0273,0.2448 l 0,0 c 2.8e-4,1.7942 0.0105,3.5887 -0.003,5.3827 l 0,0 c -0.009,1.1904 -0.48196,2.192 -1.37084,3.004 l 0,0 c -0.0463,0.042 -0.0912,0.086 -0.13676,0.1294 l 0,0 c -0.46139,0.346 -0.96002,0.619 -1.52499,0.7691 l 0,0 c -0.24036,0.064 -0.48551,0.1005 -0.73047,0.1358 l 0,0 c -0.18945,0.027 -0.31274,-0.076 -0.38351,-0.2438 l 0,0 c 7.1e-4,-0.5164 10e-4,-1.0325 0.002,-1.5489 l 0,0 c 0.009,-0.152 -0.0532,-0.3148 0.071,-0.449 l 0,0 c 0.0615,-0.067 0.13127,-0.1117 0.22546,-0.1352 l 0,0 c 0.27583,-0.068 0.55539,-0.1223 0.80675,-0.2693 l 0,0 c 0.4628,-0.2705 0.75069,-0.6614 0.87823,-1.1708 l 0,0 c 0.02,-0.08 0.0388,-0.1608 0.058,-0.2413 l 0,0 c -1.11079,0 -2.22158,0 -3.33219,-0.01 l 0,0 c -0.0961,-10e-5 -0.19105,0 -0.28435,-0.028 l 0,0 c -0.28311,-0.077 -0.49987,-0.3303 -0.50023,-0.6164 l 0,0 c -0.002,-1.6463 10e-4,-3.2928 0.002,-4.9393 l 0,0 c -0.0234,-0.2629 1.4e-4,-0.5095 0.22599,-0.6975 l 0,0 c 0.12257,-0.1018 0.25721,-0.1636 0.41827,-0.1636 l 0,0 c 0.56533,0 1.13066,0 1.69599,0 l 0,0 c 0.37748,0 0.75513,0 1.13261,0 l 0,0 c 0.69038,0 1.38059,0 2.07098,0" />
    <path
       d="m 23.009295,1012.3626 c -0.0153,0.034 -0.044,0.033 -0.0718,0.032 l 0,0 c -0.009,0 -0.0172,0 -0.0252,0 l 0,0 c -0.47646,0.041 -0.95132,0.094 -1.42157,0.1819 l 0,0 c -3.43898,0.6388 -6.26296,2.2939 -8.44906,4.9678 l 0,0 c -1.79799,2.1987 -2.78815,4.7212 -3.00208,7.5336 l 0,0 c -0.0257,0.3385 -0.0388,0.6763 -0.0394,1.0134 l 0,0 0,0.044 c 0.002,1.0044 0.1153,2.0013 0.34094,2.988 l 0,0 c 0.22652,0.9912 0.56444,1.9486 1.0189,2.864 l 0,0 c 0.0399,0.078 0.0795,0.1561 0.11991,0.2337 l 0,0 c 0.74662,1.4412 1.70699,2.7254 2.91073,3.8347 l 0,0 c 0.6338,0.5838 1.3107,1.112 2.04419,1.5684 l 0,0 c 2.24641,1.3977 4.69859,2.1306 7.36257,2.1635 l 0,0 c 0.1632,0 0.20772,0.042 0.20701,0.2053 l 0,0 c -0.007,1.3977 -0.004,2.7958 -0.004,4.1935 l 0,0 c 1.4e-4,0.054 0.005,0.1084 0.007,0.1758 l 0,0 c 0.0461,-0.019 0.075,-0.028 0.10288,-0.042 l 0,0 c 2.678,-1.2333 5.1371,-2.7919 7.32941,-4.7454 l 0,0 c 0.43601,-0.3889 0.8534,-0.7959 1.255,-1.2199 l 0,0 c 0.17189,-0.1815 0.34218,-0.3661 0.5146,-0.547 l 0,0 c 0.26608,-0.2791 0.49632,-0.5909 0.74715,-0.8842 l 0,0 c 0.28967,-0.3388 0.54972,-0.6988 0.80622,-1.0612 l 0,0 c 0.56728,-0.801 1.07354,-1.6365 1.49926,-2.5191 l 0,0 c 0.21535,-0.4464 0.42041,-0.8961 0.60187,-1.3561 l 0,0 c 0.006,-0.01 0.0142,-0.017 0.0179,-0.025 l 0,0 c 0.49455,-1.2605 0.81136,-2.5647 0.98041,-3.9026 l 0,0 c 0.0589,-0.4661 0.097,-0.9352 0.12098,-1.4039 l 0,0 c 0.0108,-0.2117 0.0163,-0.4232 0.0167,-0.6343 l 0,0 0,-0.046 c -10e-4,-0.7793 -0.0736,-1.5549 -0.21747,-2.3243 l 0,0 c -0.49545,-2.6478 -1.67826,-4.9608 -3.54684,-6.9344 l 0,0 c -0.78866,-0.8333 -1.67204,-1.5573 -2.64748,-2.172 l 0,0 c -1.81661,-1.1449 -3.79588,-1.8464 -5.94207,-2.0949 l 0,0 c -0.26165,-0.03 -0.52702,-0.026 -0.78494,-0.086 l 0,0 -1.85208,0 z m 7.75158,9.3269 c 0.43194,0 0.7899,0.4265 0.65154,0.8444 l 0,0 c 0.0328,0.079 0.0271,0.162 0.0271,0.2446 l 0,0 c 0,1.7971 7.1e-4,3.5942 -5.7e-4,5.3915 l 0,0 c -0.001,1.6057 -1.02777,3.1079 -2.5407,3.7247 l 0,0 c -0.0385,0.016 -0.0748,0.036 -0.11193,0.055 l 0,0 c 0.0259,0.031 0.057,0.041 0.0896,0.043 l 0,0 c 0.001,0 0.002,0 0.003,0 l 0,0 c -10e-4,0 -0.002,0 -0.003,0 l 0,0 c -0.0326,0 -0.0639,-0.011 -0.0898,-0.043 l 0,0 c -0.0206,0.01 -0.0413,0.011 -0.0623,0.017 l 0,0 c -0.0117,0.01 -0.0234,0.013 -0.0353,0.02 l 0,0 c -0.3161,0.087 -0.63504,0.1604 -0.96107,0.2073 l 0,0 c -0.24887,0.036 -0.43673,-0.1019 -0.43974,-0.3471 l 0,0 c -0.002,-0.1719 -0.004,-0.3439 -0.005,-0.5161 l 0,0 c 0.003,-0.3078 0.006,-0.6157 0.009,-0.9235 l 0,0 c -0.001,-0.068 -0.004,-0.1356 -0.004,-0.2033 l 0,0 c 2.8e-4,-0.2364 0.0935,-0.336 0.39309,-0.4034 l 0,0 c 0.38031,-0.085 0.73828,-0.2055 1.03416,-0.475 l 0,0 c 0.3553,-0.3236 0.53481,-0.7272 0.61623,-1.1835 l 0,0 c -1.026,0 -2.05182,0 -3.07799,-0.01 l 0,0 c -0.0371,0 -0.0745,0 -0.11176,0 l 0,0 c -0.0743,0 -0.14865,0 -0.22297,0 l 0,0 c -0.41916,-0.01 -0.706,-0.2907 -0.70582,-0.7037 l 0,0 c 5.7e-4,-1.6259 0.003,-3.2519 0.004,-4.878 l 0,0 c 0,-0.016 -0.002,-0.031 -0.003,-0.047 l 0,0 c -0.0323,-0.3043 0.0571,-0.5536 0.33277,-0.7229 l 0,0 c 0.10735,-0.066 0.22372,-0.093 0.34718,-0.093 l 0,0 c 0.68009,0 1.36037,0 2.04064,0 l 0,0 c 0.9421,0 1.8842,0 2.82629,0 m -8.65323,0 c 0.43229,0 0.79007,0.4265 0.65171,0.8444 l 0,0 c 0.0335,0.079 0.0273,0.1623 0.0273,0.2448 l 0,0 c 2.8e-4,1.7942 0.0105,3.5887 -0.003,5.3827 l 0,0 c -0.009,1.1904 -0.48196,2.192 -1.37084,3.004 l 0,0 c -0.0463,0.042 -0.0912,0.086 -0.13676,0.1294 l 0,0 c -0.46139,0.346 -0.96002,0.619 -1.52499,0.7691 l 0,0 c -0.24036,0.064 -0.48551,0.1005 -0.73047,0.1358 l 0,0 c -0.18945,0.027 -0.31274,-0.076 -0.38351,-0.2438 l 0,0 c 7.1e-4,-0.5164 10e-4,-1.0325 0.002,-1.5489 l 0,0 c 0.009,-0.152 -0.0532,-0.3148 0.071,-0.449 l 0,0 c 0.0615,-0.067 0.13127,-0.1117 0.22546,-0.1352 l 0,0 c 0.27583,-0.068 0.55539,-0.1223 0.80675,-0.2693 l 0,0 c 0.4628,-0.2705 0.75069,-0.6614 0.87823,-1.1708 l 0,0 c 0.02,-0.08 0.0388,-0.1608 0.058,-0.2413 l 0,0 c -1.11079,0 -2.22158,0 -3.33219,-0.01 l 0,0 c -0.0961,-10e-5 -0.19105,0 -0.28435,-0.028 l 0,0 c -0.28311,-0.077 -0.49987,-0.3303 -0.50023,-0.6164 l 0,0 c -0.002,-1.6463 10e-4,-3.2928 0.002,-4.9393 l 0,0 c -0.0234,-0.2629 1.4e-4,-0.5095 0.22599,-0.6975 l 0,0 c 0.12257,-0.1018 0.25721,-0.1636 0.41827,-0.1636 l 0,0 c 0.56533,0 1.13066,0 1.69599,0 l 0,0 c 0.37748,0 0.75513,0 1.13261,0 l 0,0 c 0.69038,0 1.38059,0 2.07098,0"
       style="fill:#ffffff;stroke:none"
       id="path32"
       inkscape:connector-curvature="0" />
  </g>
  <g
     inkscape:groupmode="layer"
     id="layer4"
     inkscape:label="Inset"
     style="display:inline"
     sodipodi:insensitive="true">
    <path
       style="opacity:0.15;fill:#000000;fill-opacity:1;stroke:none"
       d="m 2,34 0,3 c 0,4.986 4.014,9 9,9 l 26,0 c 4.986,0 9,-4.014 9,-9 l 0,-3 c 0,4.986 -4.014,9 -9,9 L 11,43 C 6.014,43 2,38.986 2,34 Z"
       id="rect3038-42"
       inkscape:connector-curvature="0" />
  </g>
  <g
     inkscape:groupmode="layer"
     id="layer7"
     inkscape:label="Baseshape"
     sodipodi:insensitive="true"
     style="display:none">
    <rect
       rx="9"
       ry="9"
       y="2"
       x="2"
       height="44"
       width="44"
       id="rect4169"
       style="fill:#abe1ad;fill-opacity:1;stroke:none;display:inline" />
  </g>
</svg>
